<svg width="48" height="44" viewBox="0 0 48 44" fill="none" xmlns="http://www.w3.org/2000/svg">
<path d="M24 20.5938C24.7772 20.5938 25.4062 19.9649 25.4062 19.1876V14.9691H38.0619C38.6304 14.9691 39.144 14.6272 39.3609 14.1012C39.5793 13.5753 39.4584 12.971 39.0561 12.5686L34.4255 7.93802L39.0561 3.30744C39.4584 2.90508 39.5793 2.30089 39.3609 1.77488C39.144 1.24897 38.6304 0.906982 38.0619 0.906982H24C23.2227 0.906982 22.5938 1.53592 22.5938 2.31317V19.1874C22.5938 19.9649 23.2227 20.5938 24 20.5938ZM47.577 40.7022L35.8254 29.0443C34.7297 27.9486 32.9541 27.9456 31.8548 29.0376L29.6248 31.2526L24.9843 26.6404C24.45 26.078 23.5502 26.078 23.0157 26.6404L18.3752 31.2526L16.1453 29.0376C15.0459 27.9456 13.2704 27.9486 12.1747 29.0443L0.422969 40.7022C0.00101866 41.096 -0.111383 41.6867 0.113514 42.221C0.338598 42.7554 0.844732 43.0929 1.4073 43.0929H46.5929C47.1553 43.0929 47.6616 42.7554 47.8866 42.221C48.1115 41.6867 47.999 41.096 47.577 40.7022Z" fill="url(#paint0_linear)"/>
<path d="M33.8433 27.0623L24.9842 18.2032C24.4499 17.6408 23.5501 17.6408 23.0156 18.2032L12.188 29.031L17.391 34.2338C17.9253 34.7963 18.8251 34.7963 19.3596 34.2338L24.0001 29.6215L28.6406 34.2338C28.8936 34.5151 29.2592 34.6557 29.6248 34.6557C29.9904 34.6557 30.356 34.5151 30.6091 34.2338L35.8121 29.031L33.8433 27.0623Z" fill="url(#paint1_linear)"/>
<defs>
<linearGradient id="paint0_linear" x1="24" y1="43.0929" x2="24" y2="0.907168" gradientUnits="userSpaceOnUse">
<stop stop-color="#00B59C"/>
<stop offset="1" stop-color="#9CFFAC"/>
</linearGradient>
<linearGradient id="paint1_linear" x1="24" y1="34.6557" x2="24" y2="17.7815" gradientUnits="userSpaceOnUse">
<stop stop-color="#C3FFE8"/>
<stop offset="0.9973" stop-color="#F0FFF4"/>
</linearGradient>
</defs>
</svg>
